<svg id="Layer_1" data-name="Layer 1" xmlns="http://www.w3.org/2000/svg" viewBox="0 0 714.12 597.36"><defs><style>.cls-1{fill:#c4bcdd;}.cls-1,.cls-2,.cls-3,.cls-4,.cls-5{stroke:#231f20;stroke-miterlimit:10;}.cls-2{fill:#be1e2d;}.cls-3{fill:#8c6628;}.cls-4{fill:#3fb549;}.cls-5{fill:#f7f7f7;}</style></defs><path class="cls-1" d="M-54.29,269S-142.79,2.19-30.69-55.74s678.49-53.55,765,14,132.75,532,105.22,560.92S-130,500.78-118.21,456.89-54.29,269-54.29,269Z"/><path class="cls-2" d="M12.93,437.17s132.1,4.16,180,18.33,118.69,12.5,169.42,10,130.18-3.31,167.51,1.68S661.91,465.5,690.63,473s33.5,22.5,33.5,22.5L731.79,638-99.06,623.83l38.29-177.5S-9,436.27,12.93,437.17Z"/><path class="cls-3" d="M81,530l89.47-255.43h24.16L128,540.55A20.61,20.61,0,0,1,105.11,556l-11.85-1.66A18.87,18.87,0,0,1,81,530Z"/><path class="cls-4" d="M157,271.25,56.3,353.75l89.17-109.17L28,274.58,157,220.91s-98.24-43.83-133.24-33,81.67-57.5,141.67,3.34l9.16-104.17,20,107.5,89.17-70-72.5,89.17s42.5-33.34,93.33,6.66c0,0-70.83.84-78.33,14.17,0,0,80.83,32.5,85,60,0,0-85-35-106.67-31.67,0,0,40.37,45.84,42.5,85.84S157,271.25,157,271.25Z"/><path class="cls-5" d="M364.29,323s2.5-53.45,57.5-55.06S459.29,203,500.12,213s66.67,13.06,77.5,33.2,34.17-46.17,64.17-34.27,27.5,65.24,0,69.4-24.17,35.84-54.17,45-45.83-27.5-94.17-12.5-55.83,15-77.5,7.5S382.62,335.5,364.29,323Z"/></svg>